<?xml version="1.0" encoding="utf-8"?>
<!-- Generator: Adobe Illustrator 15.1.0, SVG Export Plug-In . SVG Version: 6.00 Build 0)  -->
<!DOCTYPE svg PUBLIC "-//W3C//DTD SVG 1.1//EN" "http://www.w3.org/Graphics/SVG/1.1/DTD/svg11.dtd">
<svg version="1.1" id="Layer_1" xmlns="http://www.w3.org/2000/svg" xmlns:xlink="http://www.w3.org/1999/xlink" x="0px" y="0px"
	 width="941px" height="197px" viewBox="0 0 941 197" enable-background="new 0 0 941 197" xml:space="preserve">
<g>
	<path fill-rule="evenodd" clip-rule="evenodd" d="M31.7,0.3c17.7,0,35.3,0,53,0c-6,38.3-12.8,75.7-19.1,113.6c-17.5,0-35,0-52.4,0
		C19.1,76.7,31,0.5,31.7,0.3z"/>
	<path fill-rule="evenodd" clip-rule="evenodd" d="M683.3,116.1c-18,0-36,0-54.1,0c5.1-22.1,14.6-67.6-17.5-66.6
		c-4.7,21-6.9,44.4-10.9,66.1c-17.1,0-34.2,0-51.3,0c1.1-4.4,1.8-9.1,2.2-14.2c-15.4-5.5-32.1,3.5-38.2,14.2c-16.2,0-32.4,0-48.6,0
		c2.5-20.3,5.6-39.9,8.7-59.5c15.3,0,45.9,0,45.9,0s-0.9,9.6-1.6,15.3c5.2-5.7,8.3-7.7,13.7-10.9c7.6-4.5,17.1-6.3,27.9-8.2
		c2.2-17.5,4.2-35.1,7.1-51.9c41.7-0.1,80.2-3.7,102.1,16.4C689.7,36.1,692.2,79.5,683.3,116.1z"/>
	<path fill-rule="evenodd" clip-rule="evenodd" d="M755.4,10.1c-1.9,10.3-3.2,21.2-4.9,31.7c-16.4,0-32.8,0-49.2,0
		c2.1-10.3,3.2-21.6,5.5-31.7C723,10.1,739.2,10.1,755.4,10.1z"/>
	<path fill-rule="evenodd" clip-rule="evenodd" d="M334.8,60.9c-1.5,12.3-3.8,23.9-4.9,36.6c-6.1-3.6-12.1-6.8-21.3-8.7
		c-7.6-1.6-20.4-3.4-20.8,5.5c-0.5,12.6,28.9,12.5,31.7,21.3c-25.1,0-50.3,0-75.4,0c-1.7-4.1-2.9-7.2-3.3-10.9
		C235.9,56.4,297.2,36.8,334.8,60.9z"/>
	<path fill-rule="evenodd" clip-rule="evenodd" d="M458.8,115.5c-39.7,0-79.4,0-119.1,0c5.6-32.5,24-62.4,61.7-65
		c17.6-1.2,33.4,3.3,43.7,12.6C456.8,73.6,461.9,91.1,458.8,115.5z M392.7,99.7c8,0,16,0,24,0C422.3,74.7,391.2,78.6,392.7,99.7z"/>
	<path fill-rule="evenodd" clip-rule="evenodd" d="M841.7,60.9c-1.6,12-3.7,23.6-4.9,36c-3-0.1-7.5-4.1-10.9-5.5
		c-9.2-3.7-30.8-8.4-31.1,2.7c-0.2,6.9,9.2,9.9,14.7,12c7.5,2.9,12.4,5,17.5,8.7c-24.2,1.3-50.8,0.2-75.9,0.5
		c-1.6-3.7-2.9-6.5-3.3-9.8C741.9,56.3,804,36.8,841.7,60.9z"/>
	<path fill-rule="evenodd" clip-rule="evenodd" d="M941.1,56c-2.4,12.4-4,25.5-6.6,37.7c-19.3-6.6-30.1,7.6-33.9,21.8
		c-17.8,0-35.7,0-53.5,0c5.2-37.7,24.6-62,66.6-64.5C924.4,50.5,933.7,51.2,941.1,56z"/>
	<path fill-rule="evenodd" clip-rule="evenodd" d="M199.6,68.9c1-2.4,1-7.5,1.4-12.9c13.3,0,26.6,0,39.9,0
		c-3,20.9-6.3,39.3-8.7,59.5c-15.5,0-31,0-46.4,0c-0.4-9.4-0.7-18.5-8.2-19.1c-10.1-0.9-12.1,11.3-15.8,19.1c-16.6,0-33.1,0-49.7,0
		c6.4-27,19.8-60.8,53-62.3c6.9-0.3,18.1,0.9,24.6,4.9C193.4,60.6,195.8,64.8,199.6,68.9z"/>
	<path fill-rule="evenodd" clip-rule="evenodd" d="M748.3,56c-2.8,20-5.9,39.7-8.7,59.5c-16.4,0-32.8,0-49.2,0
		c3.3-19.7,5.4-40.4,9.3-59.5C715.9,56,732.1,56,748.3,56z"/>
	<path fill-rule="evenodd" clip-rule="evenodd" d="M10.4,131.4c17.5,0,35,0,52.4,0c-0.3,5.2-1,8.7-1.1,12.6
		c3.5,0.2,41.6,0.2,44.4,0.3c-2.2,15.3-4.4,31-6.8,46.1c-33.1,0-66.3,0-99.4,0C3.9,169.5,6.7,150.5,10.4,131.4z"/>
	<path fill-rule="evenodd" clip-rule="evenodd" d="M160,131.4c-1,8.5-1.5,20.1,4.4,22.4c11.2,4.4,16.9-12.6,19.1-22.4
		c15.1,0,30.2,0,45.3,0c-2.4,20.2-6.4,38.8-8.7,59c-13.7,0-27.3,0-41,0c0.8-3.6,1.5-7.2,2.2-10.9c-5.4,8.7-20.8,15.9-36,15.3
		c-29.3-1.1-36.5-30.3-35-61.7c0-0.5,0-1.1,0-1.6C126.9,131.4,143.5,131.4,160,131.4z"/>
	<path fill-rule="evenodd" clip-rule="evenodd" d="M332.1,131.4c10.1,42.5-20.5,65-59.5,65c-17.5,0-30.6-5.1-41.5-13.1
		c2-13.5,4.2-26.8,6.6-39.9c2.2-0.3,3.7,2.4,5.5,3.8c5.4,4.4,15.8,10.7,25.1,11.5c7.6,0.6,18.3-2.2,18.6-8.7
		c0.4-10.5-18.1-12.2-26.8-18.5C284.6,131.4,308.4,131.4,332.1,131.4z"/>
	<path fill-rule="evenodd" clip-rule="evenodd" d="M338.1,131.4c16,0,32,0,48.1,0c-1.2,13.3-2.5,31.5,9.3,32.2
		c9.6,0.6,14.1-9.8,15.8-19.7c14.6,0,29.1,0,43.7,0c-4.9,36.2-28.1,56-69.9,53C352.3,194.6,334.8,158.4,338.1,131.4z"/>
	<path fill-rule="evenodd" clip-rule="evenodd" d="M511.2,131.4c-3,19.6-6.2,39-8.7,59c-16.4,0-32.8,0-49.2,0
		c3-19.8,5.2-40.3,9.3-59C478.8,131.4,495,131.4,511.2,131.4z"/>
	<path fill-rule="evenodd" clip-rule="evenodd" d="M598.6,131.4c-1.4,10.9-1.2,9.5-2.2,15.3c15.2,1.5,19.9-7.4,25.7-15.3
		c18.6,0,37.1,0,55.7,0c-8.9,24.9-23,42.2-47.5,51.9c-24,9.5-57.6,6.9-92.3,7.1c2.4-19.6,5.9-38.6,9.8-59
		C564.8,131.4,581.7,131.4,598.6,131.4z"/>
	<path fill-rule="evenodd" clip-rule="evenodd" d="M736.8,131.4c-2.5,20-5.8,39.4-8.7,59c-16.4,0-32.8,0-49.2,0
		c3.4-19.4,5.7-39.9,9.3-59C704.4,131.4,720.6,131.4,736.8,131.4z"/>
	<path fill-rule="evenodd" clip-rule="evenodd" d="M839.1,131.8c10,42.4-20.7,64.6-59.7,64.6c-17.5,0-30.7-5-41.5-13.1
		c1.9-13.6,4-26.9,6.6-39.9c0.9-0.6,2.9,1.7,4.9,3.3c6.2,4.9,17.4,12.9,30,12c5.2-0.4,14.4-3.5,14.2-9.8
		c-0.4-9.4-15.5-11.4-27.2-17.1C789.8,131.8,815.5,131.8,839.1,131.8z"/>
	<path fill-rule="evenodd" clip-rule="evenodd" d="M899.6,131.4c1.3,13,11,19.6,26.8,16.4c-1.6,14.6-4,28.4-6,42.6
		c-46.1,12.4-79.7-11.9-74.8-59C863.5,131.4,881.6,131.4,899.6,131.4z"/>

	<path d="M924.4,28.1h-3v8.5h-1.4v-8.5h-3v-1.2h7.5V28.1z"/>
	<path d="M936.5,36.6h-1.4v-8.5h0l-3.2,8.5h-1.4l-3.2-8.5h0v8.5h-1.4v-9.8h2.3l3.1,8.1l3-8.1h2.3V36.6z"/>
</g>
</svg>
